<svg width="78" height="23" viewBox="0 0 78 23" fill="none" xmlns="http://www.w3.org/2000/svg">
<rect y="0.640137" width="21.1295" height="21.1295" rx="5.1223" fill="#003B5D"/>
<g clip-path="url(#clip0_1001_43)">
<path d="M7.36707 14.5137C7.64432 14.9402 8.03046 15.2843 8.4853 15.5103C8.8188 15.6666 9.16834 15.7859 9.52771 15.866C9.84822 15.9268 10.1735 15.9586 10.4997 15.961C10.9853 15.9527 11.4648 15.8523 11.9131 15.6651C12.4408 15.4687 12.924 15.1687 13.3346 14.7826C13.745 14.3939 14.0633 13.9179 14.266 13.3896C14.4824 12.8015 14.5422 12.1669 14.4393 11.5485C14.356 11.0145 14.1945 10.4957 13.96 10.0089C13.6681 9.3992 13.3045 8.8267 12.877 8.30365C12.6013 7.90684 12.2283 7.58796 11.794 7.37771C11.5408 7.27449 11.2801 7.19096 11.0142 7.12788C10.6381 7.05886 10.2539 7.04698 9.87428 7.0926C9.38932 7.15502 8.92116 7.31182 8.49612 7.5542C8.0076 7.81433 7.57515 8.16869 7.22357 8.59691C6.85879 9.04226 6.58301 9.55394 6.4113 10.1039C6.22784 10.7004 6.18155 11.3307 6.27592 11.9477C6.34114 12.3791 6.46031 12.8006 6.63061 13.2022C6.82573 13.666 7.0728 14.106 7.36707 14.5137Z" fill="#D9F855"/>
<path d="M9.36848 3.27441C8.2646 3.43811 7.20743 3.83289 6.26562 4.43309C5.32382 5.0333 4.51846 5.8255 3.90188 6.75824C3.72734 7.02024 3.56823 7.29224 3.42534 7.57286C3.31433 7.79552 3.04086 8.20826 3.04628 8.46079C3.04628 8.92512 4.54627 8.73233 4.89284 8.61285C5.12259 8.51635 5.33841 8.3894 5.53454 8.23541C6.13735 7.86001 6.71694 7.44833 7.27011 7.00263C7.81162 6.50572 8.17985 5.89203 8.64014 5.32995C8.78093 5.15888 8.9813 5.07471 9.11667 4.91722C9.25428 4.72855 9.36205 4.51972 9.43617 4.2981C9.50927 4.11889 9.71234 3.3776 9.36848 3.27441Z" fill="#D9F855"/>
<path d="M17.4991 7.23569C16.8871 6.15854 16.0343 5.23843 15.0078 4.5477C13.9813 3.85697 12.809 3.41447 11.5831 3.25494C11.1011 3.19249 10.8412 3.08658 10.6842 3.61608C10.5702 4.01254 10.5815 4.4347 10.7166 4.82443C10.9187 5.36947 11.3009 5.82856 11.7997 6.12511C12.0684 6.25774 12.3165 6.42878 12.5361 6.63288C12.6715 6.78494 12.7609 6.97501 12.9098 7.11621C13.1806 7.38775 13.6002 7.4149 13.9278 7.60498C14.1851 7.75433 14.38 7.99599 14.6372 8.14806C15.0579 8.3505 15.5299 8.42054 15.991 8.34899C16.4703 8.31641 17.648 8.39244 17.8457 7.87924C17.7239 7.65929 17.6183 7.44478 17.4991 7.23569Z" fill="#D9F855"/>
<path d="M15.5761 17.416C16.8762 16.3677 17.8133 14.9347 18.2539 13.3212C18.4169 12.7196 18.5077 12.1006 18.5247 11.4774C18.5382 11.1 18.6465 9.9188 18.3677 9.63097C18.0888 9.34314 17.2846 9.65541 17.0139 9.79932C16.5579 10.0232 16.1892 10.3929 15.966 10.8502C15.6817 11.453 15.4245 12.121 15.1971 12.7509C14.9263 13.5275 14.4769 14.611 14.5987 15.4663C14.6881 16.0067 14.9047 17.2992 15.5761 17.416Z" fill="#D9F855"/>
<path d="M8.43063 18.9178C10.4382 19.4786 12.5854 19.223 14.4062 18.2063C14.3061 17.9348 13.8647 17.6795 13.1987 17.4895C12.5382 17.2615 11.8472 17.1351 11.149 17.1147C10.7998 17.131 10.4667 17.2424 10.1066 17.2397C9.77689 17.2206 9.44613 17.2315 9.11836 17.2722C8.72982 17.3741 8.34964 17.5058 7.98118 17.666C7.63194 17.7847 7.26679 17.8497 6.89814 17.8588C6.69237 17.8588 6.41619 17.7664 6.29705 17.9755C6.94913 18.4099 7.67084 18.7287 8.43063 18.9178Z" fill="#D9F855"/>
<path d="M3.6067 15.1463C4.08422 15.9872 4.70988 16.7342 5.45327 17.3512C5.51125 17.082 5.55553 16.8102 5.58594 16.5365C5.57973 16.1426 5.53806 15.7499 5.4614 15.3635C5.37356 14.9458 5.25961 14.5341 5.12024 14.1307C5.05017 13.7371 4.95979 13.3474 4.84948 12.9631C4.79804 12.8382 4.73306 12.716 4.68162 12.5884C4.63017 12.4608 4.57873 12.268 4.51375 12.1132C4.31339 11.6136 3.93432 11.1709 3.66356 10.7066C3.62024 10.6333 2.7132 9.66389 2.68071 9.86212C2.36888 11.6779 2.69623 13.5459 3.6067 15.1463Z" fill="#D9F855"/>
</g>
<path d="M32.2474 17.21C30.6258 17.21 29.3892 16.825 28.5375 16.055C27.6976 15.2851 27.2776 14.2001 27.2776 12.8001C27.2776 11.8202 27.4759 10.9744 27.8725 10.2627C28.2692 9.55109 28.8292 9.00278 29.5525 8.61779C30.2875 8.23281 31.1566 8.04031 32.1599 8.04031C33.0932 8.04031 33.869 8.19197 34.4873 8.4953C35.1173 8.78695 35.5898 9.18361 35.9048 9.68525C36.2198 10.1752 36.3772 10.7061 36.3772 11.2777C36.3772 11.826 36.2431 12.281 35.9748 12.6427C35.7064 13.0043 35.339 13.2785 34.8723 13.4651C34.4056 13.6401 33.8807 13.7451 33.2974 13.7801C32.7257 13.8151 32.1249 13.7918 31.4949 13.7101C30.8649 13.6168 30.2466 13.4768 29.64 13.2901V11.4002C30.2233 11.5635 30.7308 11.6744 31.1624 11.7327C31.5941 11.791 31.9557 11.8027 32.2474 11.7677C32.539 11.7327 32.7549 11.6569 32.8949 11.5402C33.0465 11.4235 33.1224 11.2719 33.1224 11.0852C33.1224 10.8752 33.0349 10.6944 32.8599 10.5427C32.6849 10.3911 32.4399 10.3152 32.1249 10.3152C31.8216 10.3152 31.5532 10.3911 31.3199 10.5427C31.0866 10.6944 30.8999 10.9452 30.7599 11.2952C30.6316 11.6335 30.5675 12.0943 30.5675 12.6777C30.5675 13.2026 30.6374 13.6285 30.7774 13.9551C30.9174 14.2818 31.1508 14.5209 31.4774 14.6726C31.8041 14.8126 32.2532 14.8826 32.8249 14.8826C33.3965 14.8826 33.9507 14.8242 34.4873 14.7076C35.024 14.5909 35.5256 14.4159 35.9923 14.1826V16.335C35.5489 16.6033 35.0006 16.8192 34.3473 16.9825C33.694 17.1342 32.994 17.21 32.2474 17.21ZM40.78 17.21C40.1033 17.21 39.4617 17.14 38.8551 17C38.2601 16.8717 37.6884 16.6967 37.1401 16.475V13.8151C37.8168 14.2351 38.4934 14.5734 39.17 14.8301C39.8583 15.0751 40.4475 15.1976 40.9375 15.1976C41.2291 15.1976 41.4508 15.1509 41.6025 15.0576C41.7541 14.9526 41.8299 14.8301 41.8299 14.6901C41.8299 14.5034 41.7133 14.3634 41.48 14.2701C41.2583 14.1651 40.9666 14.0718 40.605 13.9901C40.255 13.9084 39.8817 13.8093 39.485 13.6926C39.1 13.576 38.7267 13.4243 38.3651 13.2376C38.0034 13.0393 37.7118 12.771 37.4901 12.4327C37.2684 12.0943 37.1576 11.6685 37.1576 11.1552C37.1576 10.5369 37.3268 9.99441 37.6651 9.52776C38.0034 9.06111 38.4992 8.69946 39.1525 8.4428C39.8175 8.17447 40.6342 8.04031 41.6025 8.04031C42.3608 8.04031 43.0082 8.12198 43.5449 8.2853C44.0815 8.44863 44.4899 8.67612 44.7698 8.96778C45.0615 9.24777 45.2073 9.58609 45.2073 9.98274C45.2073 10.3211 45.1023 10.5894 44.8923 10.7877C44.694 10.986 44.4257 11.0852 44.0874 11.0852C43.8307 11.0852 43.5974 11.0327 43.3874 10.9277C43.1774 10.8227 42.9732 10.7061 42.7749 10.5777C42.5883 10.4377 42.3841 10.3152 42.1624 10.2102C41.9408 10.1052 41.6958 10.0527 41.4275 10.0527C41.1708 10.0527 40.9725 10.1111 40.8325 10.2277C40.6925 10.3327 40.6225 10.4611 40.6225 10.6127C40.6225 10.7994 40.7333 10.9569 40.955 11.0852C41.1883 11.2019 41.48 11.3069 41.8299 11.4002C42.1916 11.4819 42.5708 11.581 42.9674 11.6977C43.3641 11.8143 43.7374 11.9718 44.0874 12.1702C44.449 12.3568 44.7407 12.6135 44.9623 12.9401C45.1957 13.2668 45.3123 13.6926 45.3123 14.2176C45.3123 14.8126 45.1315 15.3376 44.7698 15.7925C44.4199 16.2475 43.9065 16.5975 43.2299 16.8425C42.5533 17.0875 41.7366 17.21 40.78 17.21ZM45.9048 12.6602C45.9048 11.7269 46.0973 10.916 46.4823 10.2277C46.879 9.53943 47.439 9.00278 48.1623 8.61779C48.8972 8.23281 49.7722 8.04031 50.7872 8.04031C51.7788 8.04031 52.6363 8.22697 53.3596 8.60029C54.0829 8.96195 54.6487 9.4811 55.057 10.1577C55.4653 10.8344 55.6695 11.651 55.6695 12.6077C55.6695 13.5176 55.477 14.3226 55.092 15.0226C54.707 15.7109 54.1471 16.2475 53.4121 16.6325C52.6888 17.0175 51.8138 17.21 50.7872 17.21C49.8189 17.21 48.9672 17.0292 48.2323 16.6675C47.4973 16.2942 46.9256 15.7692 46.5173 15.0926C46.109 14.4043 45.9048 13.5935 45.9048 12.6602ZM49.3172 12.6427C49.3172 13.016 49.3756 13.3368 49.4922 13.6051C49.6205 13.8734 49.7955 14.0776 50.0172 14.2176C50.2389 14.3576 50.4839 14.4276 50.7522 14.4276C51.0438 14.4276 51.3005 14.3576 51.5221 14.2176C51.7438 14.0659 51.9188 13.8559 52.0471 13.5876C52.1871 13.3193 52.2571 12.9868 52.2571 12.5902C52.2571 12.2168 52.193 11.9018 52.0646 11.6452C51.948 11.3769 51.7788 11.1727 51.5571 11.0327C51.3355 10.8927 51.0847 10.8227 50.8047 10.8227C50.5247 10.8227 50.268 10.8985 50.0347 11.0502C49.813 11.1902 49.638 11.3944 49.5097 11.6627C49.3814 11.931 49.3172 12.2577 49.3172 12.6427ZM56.4318 12.6602C56.4318 11.7269 56.6243 10.916 57.0093 10.2277C57.406 9.53943 57.9659 9.00278 58.6892 8.61779C59.4242 8.23281 60.2992 8.04031 61.3141 8.04031C62.3058 8.04031 63.1633 8.22697 63.8866 8.60029C64.6099 8.96195 65.1757 9.4811 65.584 10.1577C65.9923 10.8344 66.1965 11.651 66.1965 12.6077C66.1965 13.5176 66.004 14.3226 65.619 15.0226C65.234 15.7109 64.674 16.2475 63.9391 16.6325C63.2158 17.0175 62.3408 17.21 61.3141 17.21C60.3459 17.21 59.4942 17.0292 58.7592 16.6675C58.0243 16.2942 57.4526 15.7692 57.0443 15.0926C56.636 14.4043 56.4318 13.5935 56.4318 12.6602ZM59.8442 12.6427C59.8442 13.016 59.9025 13.3368 60.0192 13.6051C60.1475 13.8734 60.3225 14.0776 60.5442 14.2176C60.7658 14.3576 61.0108 14.4276 61.2792 14.4276C61.5708 14.4276 61.8275 14.3576 62.0491 14.2176C62.2708 14.0659 62.4458 13.8559 62.5741 13.5876C62.7141 13.3193 62.7841 12.9868 62.7841 12.5902C62.7841 12.2168 62.7199 11.9018 62.5916 11.6452C62.4749 11.3769 62.3058 11.1727 62.0841 11.0327C61.8625 10.8927 61.6116 10.8227 61.3316 10.8227C61.0517 10.8227 60.795 10.8985 60.5617 11.0502C60.34 11.1902 60.165 11.3944 60.0367 11.6627C59.9084 11.931 59.8442 12.2577 59.8442 12.6427ZM66.9588 12.6602C66.9588 11.7269 67.1513 10.916 67.5363 10.2277C67.9329 9.53943 68.4929 9.00278 69.2162 8.61779C69.9512 8.23281 70.8262 8.04031 71.8411 8.04031C72.8328 8.04031 73.6902 8.22697 74.4135 8.60029C75.1368 8.96195 75.7027 9.4811 76.111 10.1577C76.5193 10.8344 76.7235 11.651 76.7235 12.6077C76.7235 13.5176 76.531 14.3226 76.146 15.0226C75.761 15.7109 75.201 16.2475 74.466 16.6325C73.7427 17.0175 72.8678 17.21 71.8411 17.21C70.8728 17.21 70.0212 17.0292 69.2862 16.6675C68.5512 16.2942 67.9796 15.7692 67.5713 15.0926C67.163 14.4043 66.9588 13.5935 66.9588 12.6602ZM70.3712 12.6427C70.3712 13.016 70.4295 13.3368 70.5462 13.6051C70.6745 13.8734 70.8495 14.0776 71.0712 14.2176C71.2928 14.3576 71.5378 14.4276 71.8061 14.4276C72.0978 14.4276 72.3544 14.3576 72.5761 14.2176C72.7978 14.0659 72.9728 13.8559 73.1011 13.5876C73.2411 13.3193 73.3111 12.9868 73.3111 12.5902C73.3111 12.2168 73.2469 11.9018 73.1186 11.6452C73.0019 11.3769 72.8328 11.1727 72.6111 11.0327C72.3894 10.8927 72.1386 10.8227 71.8586 10.8227C71.5786 10.8227 71.322 10.8985 71.0887 11.0502C70.867 11.1902 70.692 11.3944 70.5637 11.6627C70.4353 11.931 70.3712 12.2577 70.3712 12.6427Z" fill="black"/>
<defs>
<clipPath id="clip0_1001_43">
<rect width="16.0072" height="16.0072" fill="white" transform="matrix(-1 0 0 1 18.5684 3.20117)"/>
</clipPath>
</defs>
</svg>
