<svg width="139" height="36" viewBox="0 0 139 36" fill="none" xmlns="http://www.w3.org/2000/svg">
<rect y="1" width="33" height="33" rx="8" fill="#003B5D"/>
<g clip-path="url(#clip0_38_556)">
<path d="M11.507 22.6672C11.94 23.3332 12.5431 23.8706 13.2535 24.2236C13.7743 24.4678 14.3202 24.6541 14.8815 24.7792C15.3821 24.8742 15.8902 24.9239 16.3996 24.9276C17.1579 24.9146 17.9069 24.7577 18.607 24.4653C19.4311 24.1587 20.1859 23.6901 20.827 23.087C21.468 22.4801 21.9651 21.7366 22.2817 20.9115C22.6198 19.993 22.7131 19.0019 22.5523 18.0362C22.4223 17.202 22.1701 16.3918 21.8039 15.6316C21.348 14.6793 20.7801 13.7852 20.1124 12.9683C19.6818 12.3486 19.0992 11.8505 18.4209 11.5222C18.0256 11.361 17.6184 11.2305 17.2031 11.132C16.6158 11.0242 16.0156 11.0056 15.4228 11.0769C14.6654 11.1744 13.9342 11.4193 13.2704 11.7978C12.5074 12.2041 11.832 12.7575 11.2829 13.4263C10.7132 14.1219 10.2825 14.921 10.0143 15.78C9.72776 16.7115 9.65547 17.696 9.80286 18.6596C9.90472 19.3334 10.0908 19.9917 10.3568 20.6189C10.6616 21.3432 11.0474 22.0303 11.507 22.6672Z" fill="#D9F855"/>
<path d="M14.6315 5.11404C12.9075 5.36971 11.2564 5.98626 9.78551 6.92367C8.3146 7.86107 7.0568 9.09833 6.09383 10.5551C5.82124 10.9643 5.57273 11.3891 5.34957 11.8273C5.1762 12.1751 4.74909 12.8197 4.75755 13.2141C4.75755 13.9393 7.10024 13.6382 7.64151 13.4516C8.00033 13.3009 8.33739 13.1026 8.64371 12.8621C9.58518 12.2758 10.4904 11.6329 11.3543 10.9368C12.2001 10.1607 12.7752 9.20223 13.494 8.32437C13.7139 8.05719 14.0268 7.92574 14.2383 7.67977C14.4532 7.38512 14.6215 7.05896 14.7373 6.71284C14.8514 6.43294 15.1686 5.2752 14.6315 5.11404Z" fill="#D9F855"/>
<path d="M27.3298 11.3011C26.374 9.61886 25.0421 8.18183 23.4389 7.10305C21.8356 6.02428 20.0047 5.33317 18.0901 5.08403C17.3374 4.98649 16.9315 4.82107 16.6862 5.64805C16.5082 6.26725 16.5259 6.92656 16.737 7.53524C17.0525 8.38648 17.6495 9.1035 18.4284 9.56664C18.8481 9.77379 19.2355 10.0409 19.5786 10.3597C19.7901 10.5972 19.9296 10.894 20.1622 11.1145C20.5851 11.5386 21.2405 11.581 21.7522 11.8779C22.1539 12.1112 22.4584 12.4886 22.8601 12.7261C23.5172 13.0422 24.2542 13.1516 24.9745 13.0399C25.7229 12.989 27.5624 13.1078 27.8711 12.3062C27.6808 11.9627 27.5159 11.6277 27.3298 11.3011Z" fill="#D9F855"/>
<path d="M24.3285 27.2004C26.3589 25.5632 27.8225 23.3253 28.5107 20.8052C28.7651 19.8656 28.907 18.8989 28.9335 17.9256C28.9547 17.3362 29.1238 15.4914 28.6883 15.0418C28.2527 14.5923 26.9968 15.08 26.5739 15.3048C25.8618 15.6544 25.286 16.2318 24.9374 16.946C24.4934 17.8875 24.0917 18.9307 23.7364 19.9146C23.3136 21.1275 22.6116 22.8196 22.8019 24.1555C22.9415 24.9994 23.2798 27.0181 24.3285 27.2004Z" fill="#D9F855"/>
<path d="M13.1673 29.546C16.3028 30.422 19.6562 30.0228 22.5 28.4349C22.3435 28.0108 21.6543 27.6122 20.614 27.3153C19.5826 26.9592 18.5033 26.7619 17.4129 26.7301C16.8674 26.7555 16.3473 26.9294 15.7848 26.9252C15.2699 26.8954 14.7533 26.9125 14.2414 26.9761C13.6346 27.1352 13.0408 27.3408 12.4653 27.591C11.9199 27.7764 11.3496 27.8779 10.7739 27.8921C10.4525 27.8921 10.0211 27.7479 9.83508 28.0744C10.8535 28.7529 11.9806 29.2507 13.1673 29.546Z" fill="#D9F855"/>
<path d="M5.63149 23.6554C6.37728 24.9687 7.35442 26.1354 8.51545 27.099C8.60601 26.6787 8.67516 26.2541 8.72266 25.8267C8.71297 25.2114 8.64788 24.5982 8.52815 23.9947C8.39097 23.3423 8.21301 22.6993 7.99533 22.0693C7.88589 21.4545 7.74475 20.8459 7.57247 20.2457C7.49212 20.0507 7.39063 19.8598 7.31029 19.6605C7.22994 19.4612 7.1496 19.1601 7.04811 18.9183C6.73519 18.138 6.14317 17.4468 5.7203 16.7216C5.65264 16.6071 4.23603 15.093 4.18528 15.4026C3.69827 18.2385 4.20952 21.156 5.63149 23.6554Z" fill="#D9F855"/>
</g>
<path d="M50.3631 27.328C47.8305 27.328 45.8992 26.7267 44.5691 25.5242C43.2572 24.3216 42.6013 22.6271 42.6013 20.4407C42.6013 18.9102 42.911 17.5892 43.5305 16.4778C44.15 15.3663 45.0246 14.51 46.1542 13.9087C47.3021 13.3074 48.6595 13.0068 50.2265 13.0068C51.6841 13.0068 52.8958 13.2436 53.8614 13.7174C54.8453 14.1729 55.5833 14.7924 56.0752 15.5758C56.5672 16.3411 56.8131 17.1701 56.8131 18.0629C56.8131 18.9193 56.6036 19.6299 56.1845 20.1947C55.7655 20.7595 55.1915 21.1877 54.4627 21.4792C53.7339 21.7525 52.914 21.9165 52.003 21.9712C51.1102 22.0258 50.1718 21.9894 49.1879 21.8619C48.204 21.7161 47.2383 21.4975 46.2909 21.2059V18.2542C47.2019 18.5093 47.9945 18.6824 48.6686 18.7735C49.3428 18.8646 49.9076 18.8828 50.3631 18.8282C50.8186 18.7735 51.1557 18.6551 51.3744 18.4729C51.6112 18.2907 51.7297 18.0538 51.7297 17.7623C51.7297 17.4343 51.593 17.1519 51.3197 16.915C51.0464 16.6782 50.6638 16.5597 50.1718 16.5597C49.6981 16.5597 49.279 16.6782 48.9146 16.915C48.5502 17.1519 48.2587 17.5436 48.04 18.0903C47.8396 18.6186 47.7394 19.3383 47.7394 20.2494C47.7394 21.0693 47.8487 21.7343 48.0674 22.2445C48.286 22.7547 48.6504 23.1282 49.1606 23.365C49.6708 23.5837 50.3722 23.693 51.265 23.693C52.1578 23.693 53.0233 23.6019 53.8614 23.4197C54.6996 23.2375 55.4831 22.9642 56.2119 22.5998V25.9614C55.5195 26.3805 54.6631 26.7176 53.6428 26.9727C52.6225 27.2095 51.5292 27.328 50.3631 27.328ZM63.6893 27.328C62.6325 27.328 61.6304 27.2186 60.683 27C59.7537 26.7996 58.8609 26.5263 58.0046 26.1801V22.0258C59.0614 22.6818 60.1181 23.2102 61.1749 23.611C62.2499 23.9936 63.17 24.185 63.9353 24.185C64.3908 24.185 64.737 24.1121 64.9739 23.9663C65.2107 23.8023 65.3292 23.611 65.3292 23.3924C65.3292 23.1008 65.1469 22.8822 64.7825 22.7364C64.4364 22.5725 63.9808 22.4267 63.416 22.2992C62.8694 22.1716 62.2864 22.0167 61.6669 21.8345C61.0656 21.6523 60.4825 21.4155 59.9177 21.1239C59.3529 20.8142 58.8974 20.3951 58.5512 19.8667C58.205 19.3383 58.0319 18.6733 58.0319 17.8716C58.0319 16.9059 58.2961 16.0587 58.8245 15.3299C59.3529 14.6011 60.1272 14.0362 61.1476 13.6354C62.1861 13.2163 63.4616 13.0068 64.9739 13.0068C66.1582 13.0068 67.1694 13.1343 68.0075 13.3894C68.8457 13.6445 69.4834 13.9998 69.9207 14.4553C70.3762 14.8926 70.6039 15.421 70.6039 16.0405C70.6039 16.5689 70.44 16.9879 70.112 17.2977C69.8022 17.6074 69.3832 17.7623 68.8548 17.7623C68.4539 17.7623 68.0895 17.6803 67.7616 17.5163C67.4336 17.3523 67.1147 17.1701 66.805 16.9697C66.5135 16.7511 66.1946 16.5597 65.8484 16.3958C65.5022 16.2318 65.1196 16.1498 64.7005 16.1498C64.2997 16.1498 63.99 16.2409 63.7713 16.4231C63.5527 16.5871 63.4433 16.7875 63.4433 17.0244C63.4433 17.3159 63.6164 17.5619 63.9626 17.7623C64.327 17.9445 64.7825 18.1085 65.3292 18.2542C65.894 18.3818 66.4861 18.5367 67.1056 18.7189C67.7251 18.9011 68.3082 19.147 68.8548 19.4568C69.4196 19.7483 69.8751 20.1492 70.2213 20.6593C70.5857 21.1695 70.7679 21.8345 70.7679 22.6544C70.7679 23.5837 70.4855 24.4036 69.9207 25.1142C69.3741 25.8248 68.5724 26.3714 67.5156 26.754C66.4588 27.1367 65.1834 27.328 63.6893 27.328ZM71.6933 20.222C71.6933 18.7644 71.994 17.4981 72.5952 16.4231C73.2147 15.3481 74.0893 14.51 75.219 13.9087C76.3668 13.3074 77.7334 13.0068 79.3185 13.0068C80.8673 13.0068 82.2065 13.2983 83.3361 13.8814C84.4658 14.4462 85.3495 15.257 85.9872 16.3138C86.6249 17.3706 86.9437 18.646 86.9437 20.14C86.9437 21.5612 86.6431 22.8184 86.0418 23.9117C85.4406 24.9867 84.566 25.8248 83.4181 26.4261C82.2884 27.0273 80.9219 27.328 79.3185 27.328C77.8062 27.328 76.4762 27.0456 75.3283 26.4807C74.1804 25.8977 73.2876 25.0778 72.6499 24.021C72.0122 22.946 71.6933 21.6797 71.6933 20.222ZM77.0228 20.1947C77.0228 20.7778 77.1139 21.2788 77.2961 21.6979C77.4965 22.1169 77.7698 22.4358 78.116 22.6544C78.4622 22.8731 78.8448 22.9824 79.2639 22.9824C79.7194 22.9824 80.1202 22.8731 80.4664 22.6544C80.8126 22.4176 81.0859 22.0896 81.2863 21.6706C81.505 21.2515 81.6143 20.7322 81.6143 20.1127C81.6143 19.5297 81.5141 19.0377 81.3137 18.6369C81.1315 18.2178 80.8673 17.8989 80.5211 17.6803C80.1749 17.4617 79.7831 17.3523 79.3459 17.3523C78.9086 17.3523 78.5077 17.4708 78.1433 17.7076C77.7971 17.9263 77.5238 18.2451 77.3234 18.6642C77.123 19.0833 77.0228 19.5934 77.0228 20.1947ZM88.1343 20.222C88.1343 18.7644 88.435 17.4981 89.0362 16.4231C89.6557 15.3481 90.5303 14.51 91.66 13.9087C92.8078 13.3074 94.1744 13.0068 95.7595 13.0068C97.3083 13.0068 98.6475 13.2983 99.7771 13.8814C100.907 14.4462 101.79 15.257 102.428 16.3138C103.066 17.3706 103.385 18.646 103.385 20.14C103.385 21.5612 103.084 22.8184 102.483 23.9117C101.882 24.9867 101.007 25.8248 99.8591 26.4261C98.7294 27.0273 97.3629 27.328 95.7595 27.328C94.2472 27.328 92.9172 27.0456 91.7693 26.4807C90.6214 25.8977 89.7286 25.0778 89.0909 24.021C88.4532 22.946 88.1343 21.6797 88.1343 20.222ZM93.4638 20.1947C93.4638 20.7778 93.5549 21.2788 93.7371 21.6979C93.9375 22.1169 94.2108 22.4358 94.557 22.6544C94.9032 22.8731 95.2858 22.9824 95.7049 22.9824C96.1604 22.9824 96.5612 22.8731 96.9074 22.6544C97.2536 22.4176 97.5269 22.0896 97.7273 21.6706C97.946 21.2515 98.0553 20.7322 98.0553 20.1127C98.0553 19.5297 97.9551 19.0377 97.7547 18.6369C97.5725 18.2178 97.3083 17.8989 96.9621 17.6803C96.6159 17.4617 96.2242 17.3523 95.7869 17.3523C95.3496 17.3523 94.9487 17.4708 94.5843 17.7076C94.2381 17.9263 93.9648 18.2451 93.7644 18.6642C93.564 19.0833 93.4638 19.5934 93.4638 20.1947ZM104.575 20.222C104.575 18.7644 104.876 17.4981 105.477 16.4231C106.097 15.3481 106.971 14.51 108.101 13.9087C109.249 13.3074 110.615 13.0068 112.201 13.0068C113.749 13.0068 115.088 13.2983 116.218 13.8814C117.348 14.4462 118.231 15.257 118.869 16.3138C119.507 17.3706 119.826 18.646 119.826 20.14C119.826 21.5612 119.525 22.8184 118.924 23.9117C118.323 24.9867 117.448 25.8248 116.3 26.4261C115.17 27.0273 113.804 27.328 112.201 27.328C110.688 27.328 109.358 27.0456 108.21 26.4807C107.062 25.8977 106.17 25.0778 105.532 24.021C104.894 22.946 104.575 21.6797 104.575 20.222ZM109.905 20.1947C109.905 20.7778 109.996 21.2788 110.178 21.6979C110.379 22.1169 110.652 22.4358 110.998 22.6544C111.344 22.8731 111.727 22.9824 112.146 22.9824C112.601 22.9824 113.002 22.8731 113.348 22.6544C113.695 22.4176 113.968 22.0896 114.168 21.6706C114.387 21.2515 114.496 20.7322 114.496 20.1127C114.496 19.5297 114.396 19.0377 114.196 18.6369C114.013 18.2178 113.749 17.8989 113.403 17.6803C113.057 17.4617 112.665 17.3523 112.228 17.3523C111.791 17.3523 111.39 17.4708 111.025 17.7076C110.679 17.9263 110.406 18.2451 110.205 18.6642C110.005 19.0833 109.905 19.5934 109.905 20.1947ZM122.153 27.1278C121.761 27.1278 121.446 27.0213 121.207 26.8083C120.977 26.5954 120.862 26.3058 120.862 25.9395C120.862 25.5647 120.977 25.2709 121.207 25.0579C121.446 24.845 121.761 24.7385 122.153 24.7385C122.553 24.7385 122.868 24.845 123.098 25.0579C123.337 25.2709 123.456 25.5647 123.456 25.9395C123.456 26.3058 123.337 26.5954 123.098 26.8083C122.868 27.0213 122.553 27.1278 122.153 27.1278ZM130.353 22.2343C130.353 22.5665 130.251 22.8263 130.046 23.0137C129.85 23.1925 129.595 23.282 129.28 23.282C129.05 23.282 128.858 23.2394 128.705 23.1542C128.56 23.0605 128.432 22.9583 128.321 22.8476C128.211 22.7283 128.091 22.6261 127.964 22.5409C127.836 22.4557 127.678 22.4132 127.491 22.4132C127.201 22.4132 126.971 22.5281 126.801 22.7581C126.631 22.9796 126.546 23.2862 126.546 23.6781C126.546 23.9421 126.592 24.1806 126.686 24.3935C126.78 24.6065 126.942 24.7768 127.172 24.9046C127.402 25.0239 127.725 25.0835 128.143 25.0835C128.424 25.0835 128.722 25.0537 129.037 24.9941C129.352 24.9259 129.689 24.8194 130.046 24.6746V26.5528C129.765 26.7147 129.429 26.8552 129.037 26.9744C128.645 27.0937 128.181 27.1533 127.644 27.1533C126.511 27.1533 125.617 26.8595 124.961 26.2717C124.314 25.684 123.99 24.8705 123.99 23.8314C123.99 23.1499 124.126 22.558 124.399 22.0554C124.68 21.5443 125.089 21.1525 125.626 20.8799C126.162 20.5989 126.814 20.4583 127.58 20.4583C128.057 20.4583 128.5 20.5222 128.909 20.65C129.318 20.7692 129.655 20.9609 129.919 21.2249C130.208 21.5145 130.353 21.851 130.353 22.2343ZM130.665 23.8314C130.665 23.1499 130.806 22.558 131.087 22.0554C131.377 21.5529 131.786 21.161 132.314 20.8799C132.85 20.5989 133.489 20.4583 134.23 20.4583C134.954 20.4583 135.58 20.5946 136.108 20.8672C136.636 21.1312 137.05 21.5103 137.348 22.0043C137.646 22.4983 137.795 23.0946 137.795 23.793C137.795 24.4574 137.654 25.0452 137.373 25.5562C137.092 26.0588 136.683 26.4506 136.147 26.7317C135.619 27.0128 134.98 27.1533 134.23 27.1533C133.523 27.1533 132.901 27.0213 132.365 26.7572C131.828 26.4847 131.411 26.1014 131.113 25.6073C130.815 25.1048 130.665 24.5128 130.665 23.8314ZM133.157 23.8186C133.157 24.0912 133.2 24.3254 133.285 24.5213C133.378 24.7172 133.506 24.8663 133.668 24.9685C133.83 25.0707 134.009 25.1218 134.205 25.1218C134.418 25.1218 134.605 25.0707 134.767 24.9685C134.929 24.8578 135.056 24.7044 135.15 24.5085C135.252 24.3126 135.303 24.0699 135.303 23.7803C135.303 23.5077 135.257 23.2777 135.163 23.0903C135.078 22.8944 134.954 22.7454 134.792 22.6431C134.631 22.5409 134.447 22.4898 134.243 22.4898C134.039 22.4898 133.851 22.5452 133.681 22.6559C133.519 22.7581 133.391 22.9072 133.298 23.1031C133.204 23.299 133.157 23.5375 133.157 23.8186Z" fill="black"/>
<defs>
<clipPath id="clip0_38_556">
<rect width="25" height="25" fill="white" transform="matrix(-1 0 0 1 29 5)"/>
</clipPath>
</defs>
</svg>
