<svg width="120" height="32" viewBox="0 0 120 32" fill="none" xmlns="http://www.w3.org/2000/svg">
<rect y="3.64014" width="21.1295" height="21.1295" rx="5.1223" fill="#003B5D"/>
<g clip-path="url(#clip0_1001_5)">
<path d="M7.36707 17.5137C7.64432 17.9402 8.03046 18.2843 8.4853 18.5103C8.8188 18.6666 9.16834 18.7859 9.52771 18.866C9.84822 18.9268 10.1735 18.9586 10.4997 18.961C10.9853 18.9527 11.4648 18.8523 11.9131 18.6651C12.4408 18.4687 12.924 18.1687 13.3346 17.7826C13.745 17.3939 14.0633 16.9179 14.266 16.3896C14.4824 15.8015 14.5422 15.1669 14.4393 14.5485C14.356 14.0145 14.1945 13.4957 13.96 13.0089C13.6681 12.3992 13.3045 11.8267 12.877 11.3036C12.6013 10.9068 12.2283 10.588 11.794 10.3777C11.5408 10.2745 11.2801 10.191 11.0142 10.1279C10.6381 10.0589 10.2539 10.047 9.87428 10.0926C9.38932 10.155 8.92116 10.3118 8.49612 10.5542C8.0076 10.8143 7.57515 11.1687 7.22357 11.5969C6.85879 12.0423 6.58301 12.5539 6.4113 13.1039C6.22784 13.7004 6.18155 14.3307 6.27592 14.9477C6.34114 15.3791 6.46031 15.8006 6.63061 16.2022C6.82573 16.666 7.0728 17.106 7.36707 17.5137Z" fill="#D9F855"/>
<path d="M9.36848 6.27441C8.2646 6.43811 7.20743 6.83289 6.26562 7.43309C5.32382 8.0333 4.51846 8.8255 3.90188 9.75824C3.72734 10.0202 3.56823 10.2922 3.42534 10.5729C3.31433 10.7955 3.04086 11.2083 3.04628 11.4608C3.04628 11.9251 4.54627 11.7323 4.89284 11.6129C5.12259 11.5163 5.33841 11.3894 5.53454 11.2354C6.13735 10.86 6.71694 10.4483 7.27011 10.0026C7.81162 9.50572 8.17985 8.89203 8.64014 8.32995C8.78093 8.15888 8.9813 8.07471 9.11667 7.91722C9.25428 7.72855 9.36205 7.51972 9.43617 7.2981C9.50927 7.11889 9.71234 6.3776 9.36848 6.27441Z" fill="#D9F855"/>
<path d="M17.4991 10.2357C16.8871 9.15854 16.0343 8.23843 15.0078 7.5477C13.9813 6.85697 12.809 6.41447 11.5831 6.25494C11.1011 6.19249 10.8412 6.08658 10.6842 6.61608C10.5702 7.01254 10.5815 7.4347 10.7166 7.82443C10.9187 8.36947 11.3009 8.82856 11.7997 9.12511C12.0684 9.25774 12.3165 9.42878 12.5361 9.63288C12.6715 9.78494 12.7609 9.97501 12.9098 10.1162C13.1806 10.3878 13.6002 10.4149 13.9278 10.605C14.1851 10.7543 14.38 10.996 14.6372 11.1481C15.0579 11.3505 15.5299 11.4205 15.991 11.349C16.4703 11.3164 17.648 11.3924 17.8457 10.8792C17.7239 10.6593 17.6183 10.4448 17.4991 10.2357Z" fill="#D9F855"/>
<path d="M15.5761 20.416C16.8762 19.3677 17.8133 17.9347 18.2539 16.3212C18.4169 15.7196 18.5077 15.1006 18.5247 14.4774C18.5382 14.1 18.6465 12.9188 18.3677 12.631C18.0888 12.3431 17.2846 12.6554 17.0139 12.7993C16.5579 13.0232 16.1892 13.3929 15.966 13.8502C15.6817 14.453 15.4245 15.121 15.1971 15.7509C14.9263 16.5275 14.4769 17.611 14.5987 18.4663C14.6881 19.0067 14.9047 20.2992 15.5761 20.416Z" fill="#D9F855"/>
<path d="M8.43063 21.9178C10.4382 22.4786 12.5854 22.223 14.4062 21.2063C14.3061 20.9348 13.8647 20.6795 13.1987 20.4895C12.5382 20.2615 11.8472 20.1351 11.149 20.1147C10.7998 20.131 10.4667 20.2424 10.1066 20.2397C9.77689 20.2206 9.44613 20.2315 9.11836 20.2722C8.72982 20.3741 8.34964 20.5058 7.98118 20.666C7.63194 20.7847 7.26679 20.8497 6.89814 20.8588C6.69237 20.8588 6.41619 20.7664 6.29705 20.9755C6.94913 21.4099 7.67084 21.7287 8.43063 21.9178Z" fill="#D9F855"/>
<path d="M3.6067 18.1463C4.08422 18.9872 4.70988 19.7342 5.45327 20.3512C5.51125 20.082 5.55553 19.8102 5.58594 19.5365C5.57973 19.1426 5.53806 18.7499 5.4614 18.3635C5.37356 17.9458 5.25961 17.5341 5.12024 17.1307C5.05017 16.7371 4.95979 16.3474 4.84948 15.9631C4.79804 15.8382 4.73306 15.716 4.68162 15.5884C4.63017 15.4608 4.57873 15.268 4.51375 15.1132C4.31339 14.6136 3.93432 14.1709 3.66356 13.7066C3.62024 13.6333 2.7132 12.6639 2.68071 12.8621C2.36888 14.6779 2.69623 16.5459 3.6067 18.1463Z" fill="#D9F855"/>
</g>
<path d="M32.2474 20.21C30.6258 20.21 29.3892 19.825 28.5375 19.055C27.6976 18.2851 27.2776 17.2001 27.2776 15.8001C27.2776 14.8202 27.4759 13.9744 27.8725 13.2627C28.2692 12.5511 28.8292 12.0028 29.5525 11.6178C30.2875 11.2328 31.1566 11.0403 32.1599 11.0403C33.0932 11.0403 33.869 11.192 34.4873 11.4953C35.1173 11.787 35.5898 12.1836 35.9048 12.6853C36.2198 13.1752 36.3772 13.7061 36.3772 14.2777C36.3772 14.826 36.2431 15.281 35.9748 15.6427C35.7064 16.0043 35.339 16.2785 34.8723 16.4651C34.4056 16.6401 33.8807 16.7451 33.2974 16.7801C32.7257 16.8151 32.1249 16.7918 31.4949 16.7101C30.8649 16.6168 30.2466 16.4768 29.64 16.2901V14.4002C30.2233 14.5635 30.7308 14.6744 31.1624 14.7327C31.5941 14.791 31.9557 14.8027 32.2474 14.7677C32.539 14.7327 32.7549 14.6569 32.8949 14.5402C33.0465 14.4235 33.1224 14.2719 33.1224 14.0852C33.1224 13.8752 33.0349 13.6944 32.8599 13.5427C32.6849 13.3911 32.4399 13.3152 32.1249 13.3152C31.8216 13.3152 31.5532 13.3911 31.3199 13.5427C31.0866 13.6944 30.8999 13.9452 30.7599 14.2952C30.6316 14.6335 30.5675 15.0943 30.5675 15.6777C30.5675 16.2026 30.6374 16.6285 30.7774 16.9551C30.9174 17.2818 31.1508 17.5209 31.4774 17.6726C31.8041 17.8126 32.2532 17.8826 32.8249 17.8826C33.3965 17.8826 33.9507 17.8242 34.4873 17.7076C35.024 17.5909 35.5256 17.4159 35.9923 17.1826V19.335C35.5489 19.6033 35.0006 19.8192 34.3473 19.9825C33.694 20.1342 32.994 20.21 32.2474 20.21ZM40.78 20.21C40.1033 20.21 39.4617 20.14 38.8551 20C38.2601 19.8717 37.6884 19.6967 37.1401 19.475V16.8151C37.8168 17.2351 38.4934 17.5734 39.17 17.8301C39.8583 18.0751 40.4475 18.1976 40.9375 18.1976C41.2291 18.1976 41.4508 18.1509 41.6025 18.0576C41.7541 17.9526 41.8299 17.8301 41.8299 17.6901C41.8299 17.5034 41.7133 17.3634 41.48 17.2701C41.2583 17.1651 40.9666 17.0718 40.605 16.9901C40.255 16.9084 39.8817 16.8093 39.485 16.6926C39.1 16.576 38.7267 16.4243 38.3651 16.2376C38.0034 16.0393 37.7118 15.771 37.4901 15.4327C37.2684 15.0943 37.1576 14.6685 37.1576 14.1552C37.1576 13.5369 37.3268 12.9944 37.6651 12.5278C38.0034 12.0611 38.4992 11.6995 39.1525 11.4428C39.8175 11.1745 40.6342 11.0403 41.6025 11.0403C42.3608 11.0403 43.0082 11.122 43.5449 11.2853C44.0815 11.4486 44.4899 11.6761 44.7698 11.9678C45.0615 12.2478 45.2073 12.5861 45.2073 12.9827C45.2073 13.3211 45.1023 13.5894 44.8923 13.7877C44.694 13.986 44.4257 14.0852 44.0874 14.0852C43.8307 14.0852 43.5974 14.0327 43.3874 13.9277C43.1774 13.8227 42.9732 13.7061 42.7749 13.5777C42.5883 13.4377 42.3841 13.3152 42.1624 13.2102C41.9408 13.1052 41.6958 13.0527 41.4275 13.0527C41.1708 13.0527 40.9725 13.1111 40.8325 13.2277C40.6925 13.3327 40.6225 13.4611 40.6225 13.6127C40.6225 13.7994 40.7333 13.9569 40.955 14.0852C41.1883 14.2019 41.48 14.3069 41.8299 14.4002C42.1916 14.4819 42.5708 14.581 42.9674 14.6977C43.3641 14.8143 43.7374 14.9718 44.0874 15.1702C44.449 15.3568 44.7407 15.6135 44.9623 15.9401C45.1957 16.2668 45.3123 16.6926 45.3123 17.2176C45.3123 17.8126 45.1315 18.3376 44.7698 18.7925C44.4199 19.2475 43.9065 19.5975 43.2299 19.8425C42.5533 20.0875 41.7366 20.21 40.78 20.21ZM45.9048 15.6602C45.9048 14.7269 46.0973 13.916 46.4823 13.2277C46.879 12.5394 47.439 12.0028 48.1623 11.6178C48.8972 11.2328 49.7722 11.0403 50.7872 11.0403C51.7788 11.0403 52.6363 11.227 53.3596 11.6003C54.0829 11.9619 54.6487 12.4811 55.057 13.1577C55.4653 13.8344 55.6695 14.651 55.6695 15.6077C55.6695 16.5176 55.477 17.3226 55.092 18.0226C54.707 18.7109 54.1471 19.2475 53.4121 19.6325C52.6888 20.0175 51.8138 20.21 50.7872 20.21C49.8189 20.21 48.9672 20.0292 48.2323 19.6675C47.4973 19.2942 46.9256 18.7692 46.5173 18.0926C46.109 17.4043 45.9048 16.5935 45.9048 15.6602ZM49.3172 15.6427C49.3172 16.016 49.3756 16.3368 49.4922 16.6051C49.6205 16.8734 49.7955 17.0776 50.0172 17.2176C50.2389 17.3576 50.4839 17.4276 50.7522 17.4276C51.0438 17.4276 51.3005 17.3576 51.5221 17.2176C51.7438 17.0659 51.9188 16.8559 52.0471 16.5876C52.1871 16.3193 52.2571 15.9868 52.2571 15.5902C52.2571 15.2168 52.193 14.9018 52.0646 14.6452C51.948 14.3769 51.7788 14.1727 51.5571 14.0327C51.3355 13.8927 51.0847 13.8227 50.8047 13.8227C50.5247 13.8227 50.268 13.8985 50.0347 14.0502C49.813 14.1902 49.638 14.3944 49.5097 14.6627C49.3814 14.931 49.3172 15.2577 49.3172 15.6427ZM56.4318 15.6602C56.4318 14.7269 56.6243 13.916 57.0093 13.2277C57.406 12.5394 57.9659 12.0028 58.6892 11.6178C59.4242 11.2328 60.2992 11.0403 61.3141 11.0403C62.3058 11.0403 63.1633 11.227 63.8866 11.6003C64.6099 11.9619 65.1757 12.4811 65.584 13.1577C65.9923 13.8344 66.1965 14.651 66.1965 15.6077C66.1965 16.5176 66.004 17.3226 65.619 18.0226C65.234 18.7109 64.674 19.2475 63.9391 19.6325C63.2158 20.0175 62.3408 20.21 61.3141 20.21C60.3459 20.21 59.4942 20.0292 58.7592 19.6675C58.0243 19.2942 57.4526 18.7692 57.0443 18.0926C56.636 17.4043 56.4318 16.5935 56.4318 15.6602ZM59.8442 15.6427C59.8442 16.016 59.9025 16.3368 60.0192 16.6051C60.1475 16.8734 60.3225 17.0776 60.5442 17.2176C60.7658 17.3576 61.0108 17.4276 61.2792 17.4276C61.5708 17.4276 61.8275 17.3576 62.0491 17.2176C62.2708 17.0659 62.4458 16.8559 62.5741 16.5876C62.7141 16.3193 62.7841 15.9868 62.7841 15.5902C62.7841 15.2168 62.7199 14.9018 62.5916 14.6452C62.4749 14.3769 62.3058 14.1727 62.0841 14.0327C61.8625 13.8927 61.6116 13.8227 61.3316 13.8227C61.0517 13.8227 60.795 13.8985 60.5617 14.0502C60.34 14.1902 60.165 14.3944 60.0367 14.6627C59.9084 14.931 59.8442 15.2577 59.8442 15.6427ZM66.9588 15.6602C66.9588 14.7269 67.1513 13.916 67.5363 13.2277C67.9329 12.5394 68.4929 12.0028 69.2162 11.6178C69.9512 11.2328 70.8262 11.0403 71.8411 11.0403C72.8328 11.0403 73.6902 11.227 74.4135 11.6003C75.1368 11.9619 75.7027 12.4811 76.111 13.1577C76.5193 13.8344 76.7235 14.651 76.7235 15.6077C76.7235 16.5176 76.531 17.3226 76.146 18.0226C75.761 18.7109 75.201 19.2475 74.466 19.6325C73.7427 20.0175 72.8678 20.21 71.8411 20.21C70.8728 20.21 70.0212 20.0292 69.2862 19.6675C68.5512 19.2942 67.9796 18.7692 67.5713 18.0926C67.163 17.4043 66.9588 16.5935 66.9588 15.6602ZM70.3712 15.6427C70.3712 16.016 70.4295 16.3368 70.5462 16.6051C70.6745 16.8734 70.8495 17.0776 71.0712 17.2176C71.2928 17.3576 71.5378 17.4276 71.8061 17.4276C72.0978 17.4276 72.3544 17.3576 72.5761 17.2176C72.7978 17.0659 72.9728 16.8559 73.1011 16.5876C73.2411 16.3193 73.3111 15.9868 73.3111 15.5902C73.3111 15.2168 73.2469 14.9018 73.1186 14.6452C73.0019 14.3769 72.8328 14.1727 72.6111 14.0327C72.3894 13.8927 72.1386 13.8227 71.8586 13.8227C71.5786 13.8227 71.322 13.8985 71.0887 14.0502C70.867 14.1902 70.692 14.3944 70.5637 14.6627C70.4353 14.931 70.3712 15.2577 70.3712 15.6427ZM78.2134 20.0818C77.9625 20.0818 77.7607 20.0136 77.608 19.8773C77.4607 19.7409 77.3871 19.5555 77.3871 19.321C77.3871 19.081 77.4607 18.8929 77.608 18.7565C77.7607 18.6202 77.9625 18.552 78.2134 18.552C78.4697 18.552 78.6715 18.6202 78.8188 18.7565C78.9715 18.8929 79.0478 19.081 79.0478 19.321C79.0478 19.5555 78.9715 19.7409 78.8188 19.8773C78.6715 20.0136 78.4697 20.0818 78.2134 20.0818ZM83.4639 16.9486C83.4639 17.1613 83.3985 17.3276 83.2676 17.4476C83.1421 17.5621 82.9785 17.6194 82.7767 17.6194C82.6295 17.6194 82.5068 17.5921 82.4086 17.5376C82.3159 17.4776 82.2341 17.4121 82.1632 17.3412C82.0923 17.2649 82.0159 17.1994 81.9341 17.1449C81.8523 17.0904 81.7514 17.0631 81.6314 17.0631C81.446 17.0631 81.2987 17.1367 81.1896 17.284C81.0806 17.4258 81.026 17.6221 81.026 17.873C81.026 18.0421 81.056 18.1948 81.116 18.3311C81.176 18.4675 81.2796 18.5765 81.4269 18.6584C81.5741 18.7347 81.7814 18.7729 82.0486 18.7729C82.2286 18.7729 82.4195 18.7538 82.6213 18.7156C82.8231 18.672 83.0385 18.6038 83.2676 18.5111V19.7137C83.0876 19.8173 82.8722 19.9073 82.6213 19.9836C82.3704 20.06 82.0732 20.0982 81.7296 20.0982C81.0042 20.0982 80.4316 19.91 80.0116 19.5337C79.5971 19.1574 79.3899 18.6365 79.3899 17.9712C79.3899 17.5349 79.4771 17.1558 79.6517 16.834C79.8316 16.5068 80.0934 16.2559 80.437 16.0814C80.7806 15.9014 81.1978 15.8114 81.6887 15.8114C81.9941 15.8114 82.2777 15.8523 82.5395 15.9342C82.8013 16.0105 83.0167 16.1332 83.1858 16.3023C83.3712 16.4877 83.4639 16.7031 83.4639 16.9486ZM83.664 17.9712C83.664 17.5349 83.754 17.1558 83.934 16.834C84.1194 16.5123 84.3812 16.2614 84.7193 16.0814C85.0629 15.9014 85.472 15.8114 85.9464 15.8114C86.41 15.8114 86.8109 15.8987 87.149 16.0732C87.4872 16.2423 87.7517 16.485 87.9426 16.8013C88.1334 17.1176 88.2289 17.4994 88.2289 17.9466C88.2289 18.372 88.1389 18.7483 87.9589 19.0756C87.7789 19.3973 87.5172 19.6482 87.1736 19.8282C86.8354 20.0082 86.4264 20.0982 85.9464 20.0982C85.4938 20.0982 85.0956 20.0136 84.7521 19.8446C84.4085 19.67 84.1412 19.4246 83.9503 19.1083C83.7595 18.7865 83.664 18.4075 83.664 17.9712ZM85.2593 17.963C85.2593 18.1375 85.2865 18.2875 85.3411 18.4129C85.4011 18.5384 85.4829 18.6338 85.5865 18.6993C85.6901 18.7647 85.8046 18.7974 85.9301 18.7974C86.0664 18.7974 86.1864 18.7647 86.29 18.6993C86.3937 18.6284 86.4755 18.5302 86.5355 18.4047C86.6009 18.2793 86.6336 18.1239 86.6336 17.9384C86.6336 17.7639 86.6036 17.6167 86.5436 17.4967C86.4891 17.3712 86.41 17.2758 86.3064 17.2104C86.2028 17.1449 86.0855 17.1122 85.9546 17.1122C85.8237 17.1122 85.7038 17.1476 85.5947 17.2185C85.491 17.284 85.4092 17.3794 85.3492 17.5049C85.2893 17.6303 85.2593 17.783 85.2593 17.963Z" fill="black"/>
<defs>
<clipPath id="clip0_1001_5">
<rect width="16.0072" height="16.0072" fill="white" transform="matrix(-1 0 0 1 18.5684 6.20117)"/>
</clipPath>
</defs>
</svg>
